<svg xmlns="http://www.w3.org/2000/svg" xmlns:xlink="http://www.w3.org/1999/xlink" viewBox="0 0 229.03 78.47"><defs><style>.cls-1,.cls-11{fill:none;}.cls-2{fill:#6a3906;}.cls-3{clip-path:url(#clip-path);}.cls-4{fill:#b0413a;}.cls-5,.cls-6{fill:#d14442;}.cls-5{opacity:0.75;}.cls-6{opacity:0.7;}.cls-7{font-size:26.73px;fill:#7f4f21;font-family:SegoePrint, Segoe Print;}.cls-8{letter-spacing:-0.02em;}.cls-9{letter-spacing:0em;}.cls-10{fill:#00913a;}.cls-11{stroke:#fff100;stroke-miterlimit:10;}.cls-12{fill:#fff;}.cls-13{fill:#b28247;}</style><clipPath id="clip-path" transform="translate(0 2.53)"><rect class="cls-1" x="41.94" y="4.26" width="8.52" height="12.1"/></clipPath></defs><g id="圖層_2" data-name="圖層 2"><g id="圖層_1-2" data-name="圖層 1"><rect class="cls-2" x="41.94" y="6.55" width="8.52" height="12.34"/><g class="cls-3"><rect class="cls-4" x="42.43" width="4.79" height="4.77"/><rect class="cls-4" x="47.44" width="4.79" height="4.77"/><rect class="cls-5" x="39.35" y="5.13" width="4.79" height="4.77"/><rect class="cls-6" x="44.34" y="5.13" width="4.79" height="4.77"/><rect class="cls-5" x="49.34" y="5.13" width="4.79" height="4.77"/><rect class="cls-4" x="54.36" y="5.13" width="4.79" height="4.77"/><rect class="cls-5" x="46.26" y="10.26" width="4.79" height="4.77"/><rect class="cls-4" x="51.25" y="10.26" width="4.79" height="4.77"/><rect class="cls-4" x="36.15" y="10.26" width="4.79" height="4.77"/><rect class="cls-5" x="41.16" y="10.26" width="4.79" height="4.77"/><rect class="cls-4" x="33.07" y="15.39" width="4.79" height="4.77"/><rect class="cls-5" x="38.06" y="15.39" width="4.79" height="4.77"/><rect class="cls-5" x="43.05" y="15.39" width="4.79" height="4.77"/><rect class="cls-5" x="48.07" y="15.39" width="4.79" height="4.77"/><rect class="cls-4" x="39.98" y="20.53" width="4.79" height="4.77"/><rect class="cls-4" x="44.96" y="20.53" width="4.79" height="4.77"/></g><text class="cls-7" transform="translate(70.16 65.23) scale(0.96 1)">Bear’s <tspan class="cls-8" x="91.2" y="0">C</tspan><tspan class="cls-9" x="109.36" y="0">abin</tspan></text><path class="cls-10" d="M34.25.73,58.47,23.64a2.69,2.69,0,0,1-1.85,4.64H8.18a2.69,2.69,0,0,1-1.85-4.64L30.55.73A2.72,2.72,0,0,1,34.25.73Z" transform="translate(0 2.53)"/><path class="cls-10" d="M34.35,2.29,63.24,43.84A2.69,2.69,0,0,1,61,48.06H3.25a2.68,2.68,0,0,1-2.2-4.22L29.94,2.29A2.68,2.68,0,0,1,34.35,2.29Z" transform="translate(0 2.53)"/><path class="cls-10" d="M34.81,3.56,64.52,63.77a2.69,2.69,0,0,1-2.41,3.88H2.69A2.69,2.69,0,0,1,.28,63.77L30,3.56A2.69,2.69,0,0,1,34.81,3.56Z" transform="translate(0 2.53)"/><path class="cls-11" d="M18.8,32.68c0,3.9,3.88,7.07,8.65,7.07V32.68Z" transform="translate(0 2.53)"/><path class="cls-11" d="M27.45,25.61c-4.77,0-8.65,3.17-8.65,7.07h8.65Z" transform="translate(0 2.53)"/><path class="cls-11" d="M27.45,39.75c4.78,0,8.66-3.17,8.66-7.07H27.45Z" transform="translate(0 2.53)"/><path class="cls-11" d="M27.45,25.61v7.07h8.66C36.11,28.78,32.23,25.61,27.45,25.61Z" transform="translate(0 2.53)"/><ellipse class="cls-11" cx="28.48" cy="23.82" rx="2.02" ry="1.65"/><ellipse class="cls-11" cx="35.43" cy="26.16" rx="2.02" ry="1.65"/><ellipse class="cls-11" cx="39.92" cy="31.09" rx="2.02" ry="1.65"/><path class="cls-12" d="M49,67.65a5.3,5.3,0,0,0,.11-2.25L49,64.75a1.62,1.62,0,0,0,1.6.33c.8-.34,1-1.55.82-2.33a2,2,0,0,0-.28-.64q-.41-.78-.75-1.32c-.15-.24-.4-.63-.76-1.12-.17-.23-.36-.45-.72-.88s-.52-.64-.71-.84a13.45,13.45,0,0,0-1-1,5.6,5.6,0,0,0,2.1-2A5,5,0,0,0,50,52.23a5,5,0,0,0-.4-2,2.29,2.29,0,0,0,1.82-2.19A2.34,2.34,0,0,0,49,45.83a2.42,2.42,0,0,0-2.26,1.45,8,8,0,0,0-7.07-.05,2.43,2.43,0,0,0-2.24-1.4,2.34,2.34,0,0,0-2.42,2.25,2.28,2.28,0,0,0,1.7,2.16,5.13,5.13,0,0,0-.41,2,5.62,5.62,0,0,0,3,4.79c-.21.24-.46.53-.74.87s-.42.52-.74,1c-.09.11-.36.47-.71,1s-.57.81-.91,1.34l-.72,1.16a1.77,1.77,0,0,0-.29.63,2,2,0,0,0,.87,2.3A1.53,1.53,0,0,0,37.51,65l-.07.42a5.34,5.34,0,0,0,.1,2.19" transform="translate(0 2.53)"/><rect class="cls-13" x="41.2" y="5.71" width="10" height="2.15" rx="0.84"/></g></g></svg>